<svg width="24" height="24" viewBox="0 0 24 24" fill="none" xmlns="http://www.w3.org/2000/svg">
<path d="M19.1495 7.985C19.1612 8.16027 19.1612 8.33478 19.1612 8.51005C19.1672 10.0261 18.8993 11.5283 18.3732 12.9294C17.8471 14.3305 17.0733 15.6025 16.0967 16.6716C15.1201 17.7406 13.9602 18.5853 12.6844 19.1566C11.4086 19.7279 10.0424 20.0144 8.66515 19.9994C6.6577 20.0049 4.69118 19.3748 3 18.1842C3.29586 18.22 3.59337 18.2368 3.891 18.2345C5.54958 18.2388 7.16157 17.6308 8.46923 16.5077C7.7018 16.4937 6.95741 16.2168 6.33953 15.7156C5.72165 15.2144 5.26097 14.5137 5.02154 13.711C5.25195 13.7509 5.48476 13.7718 5.718 13.7735C6.04501 13.7724 6.37061 13.7264 6.68723 13.6363C5.85396 13.4541 5.1038 12.9597 4.56444 12.2372C4.02508 11.5147 3.72985 10.6088 3.729 9.6737V9.6234C4.24069 9.93596 4.812 10.1116 5.39677 10.1363C4.61435 9.56807 4.05974 8.69117 3.84722 7.68627C3.6347 6.68136 3.78046 5.625 4.25446 4.73487C5.18372 5.98554 6.34075 7.008 7.65098 7.73633C8.96121 8.46466 10.3955 8.88269 11.8615 8.96347C11.8023 8.65936 11.7717 8.34935 11.7702 8.03834C11.7758 7.22628 12.002 6.43463 12.4197 5.76526C12.8375 5.09588 13.4276 4.57939 14.1142 4.28223C14.8008 3.98507 15.5525 3.92083 16.2725 4.09778C16.9926 4.27473 17.648 4.68477 18.1546 5.27516C18.9803 5.10111 19.7725 4.7711 20.496 4.29974C20.2198 5.23431 19.643 6.02563 18.8739 6.52492C19.607 6.433 20.3236 6.22137 21 5.89699C20.4943 6.70264 19.8686 7.40856 19.1495 7.985Z" fill="#10AFE1"/>
</svg>
